<svg width="33" height="32" viewBox="0 0 33 32" fill="none" xmlns="http://www.w3.org/2000/svg">
<g style="mix-blend-mode:plus-lighter">
<path opacity="0.4" d="M5.49698 22.5513C6.70536 22.8684 7.93198 23.1265 9.15128 23.3394C9.37089 24.5636 9.62065 25.7858 9.93546 26.9927C8.1159 25.9086 6.58799 24.3748 5.49698 22.5513Z" fill="#C6C1F0" stroke="#C6C1F0"/>
<path opacity="0.4" d="M27.511 22.5503C26.4172 24.3834 24.8693 25.9209 23.0286 27.021C23.3636 25.8036 23.6499 24.5757 23.8655 23.3384C25.0927 23.1252 26.308 22.8678 27.511 22.5503Z" fill="#C6C1F0" stroke="#C6C1F0"/>
<path opacity="0.4" d="M23.0374 4.97925C24.8843 6.07909 26.4283 7.6235 27.5266 9.47144C26.3177 9.13924 25.0987 8.85863 23.8655 8.63647C23.6522 7.40565 23.3737 6.18337 23.0374 4.97925Z" fill="#C6C1F0" stroke="#C6C1F0"/>
<path opacity="0.4" d="M9.93915 4.99402C9.62378 6.19978 9.37481 7.41718 9.16278 8.64441C7.92396 8.85199 6.69495 9.13694 5.47723 9.47156C6.57532 7.63376 8.1101 6.08766 9.93915 4.99402Z" fill="#C6C1F0" stroke="#C6C1F0"/>
<path d="M16.5 3.16663C17.4572 3.16663 18.3988 3.28889 19.3076 3.48987C19.308 3.4914 19.3082 3.49323 19.3086 3.49475L19.3135 3.51428L19.3193 3.53381C19.838 5.06667 20.2264 6.63387 20.5371 8.22034C17.851 7.96265 15.148 7.96259 12.4619 8.22034C12.7728 6.63087 13.1614 5.05514 13.6797 3.53479L13.6865 3.51526L13.6914 3.49475C13.692 3.4923 13.6918 3.48937 13.6924 3.48694C14.6061 3.28709 15.5351 3.16663 16.5 3.16663Z" fill="#C6C1F0" stroke="#C6C1F0"/>
<path d="M9.28666 20.6533C7.44666 20.32 5.63332 19.8933 3.87332 19.2933C3.76666 19.2667 3.68666 19.28 3.57999 19.2667C3.32666 18.2133 3.16666 17.1333 3.16666 16C3.16666 14.88 3.32666 13.7867 3.57999 12.7467C3.68666 12.7333 3.76666 12.7333 3.87332 12.7067C5.64666 12.12 7.44666 11.68 9.28666 11.3467C8.95332 14.44 8.95332 17.56 9.28666 20.6533Z" fill="#C6C1F0"/>
<path d="M29.8333 16C29.8333 17.1333 29.6733 18.2133 29.42 19.2667C29.3133 19.28 29.2333 19.2667 29.1267 19.2933C27.3533 19.88 25.54 20.32 23.7133 20.6533C24.06 17.56 24.06 14.44 23.7133 11.3467C25.54 11.68 27.3667 12.1067 29.1267 12.7067C29.2333 12.7333 29.3133 12.7467 29.42 12.7467C29.6733 13.8 29.8333 14.88 29.8333 16Z" fill="#C6C1F0"/>
<path d="M21.1533 23.2134C20.82 25.0534 20.3933 26.8667 19.7933 28.6267C19.7667 28.7334 19.7667 28.8134 19.7533 28.92C18.7133 29.1734 17.62 29.3334 16.5 29.3334C15.3667 29.3334 14.2867 29.1734 13.2333 28.92C13.22 28.8134 13.2333 28.7334 13.2067 28.6267C12.62 26.8534 12.18 25.0534 11.8467 23.2134C13.3933 23.3867 14.94 23.5067 16.5 23.5067C18.06 23.5067 19.62 23.3867 21.1533 23.2134Z" fill="#C6C1F0"/>
<path d="M21.5178 21.0179C18.183 21.4386 14.817 21.4386 11.4822 21.0179C11.0615 17.6831 11.0615 14.3171 11.4822 10.9823C14.817 10.5616 18.183 10.5616 21.5178 10.9823C21.9385 14.3171 21.9385 17.6831 21.5178 21.0179Z" fill="#C6C1F0"/>
</g>
</svg>
