<svg width="219" height="40" viewBox="0 0 219 40" fill="none" xmlns="http://www.w3.org/2000/svg">
<path d="M0 23L6 29L4.5 36L12 34.5L16.5 39.5V23H0Z" fill="#584BD4"/>
<path d="M20 40C23.9556 40 27.8224 38.827 31.1114 36.6294C34.4004 34.4318 36.9638 31.3082 38.4776 27.6537C39.9913 23.9991 40.3874 19.9778 39.6157 16.0982C38.844 12.2186 36.9392 8.65491 34.1421 5.85786C31.3451 3.06081 27.7814 1.156 23.9018 0.384295C20.0222 -0.38741 16.0009 0.00865614 12.3463 1.52241C8.69181 3.03616 5.56824 5.59961 3.37061 8.88859C1.17298 12.1776 5.97283e-07 16.0444 0 20L20 19.5V40Z" fill="#584BD4"/>
<g filter="url(#filter0_i_3_325)">
<path d="M20 40V19.5C25.4858 19.5 39.9483 19.5211 38.9509 25.8598C37.9535 32.1985 30.4729 40 20 40Z" fill="#584BD4"/>
</g>
<path d="M56.54 29.5H50.9V9.4H68.87V14.47H56.54V17.47H68.42V22.51H56.54V29.5ZM75.9931 29.5H70.3531V14.38H75.6331V18.34H75.9331C76.3531 15.85 77.9131 14.08 80.9131 14.08C84.2431 14.08 85.5631 16.27 85.5631 19.3V22.3H79.9231V20.53C79.9231 19.27 79.4431 18.82 77.9731 18.82C76.4431 18.82 75.9931 19.27 75.9931 20.47V29.5ZM95.1894 29.8C90.0594 29.8 86.4594 27.61 86.4594 21.94C86.4594 17.02 90.0294 14.08 95.0694 14.08C100.289 14.08 103.619 16.69 103.619 21.55C103.619 22.06 103.589 22.45 103.529 22.99H91.6794C91.7694 24.82 92.5794 25.33 94.9794 25.33C97.2594 25.33 97.8594 24.94 97.8594 24.04V23.71H103.499V24.07C103.499 27.43 100.289 29.8 95.1894 29.8ZM94.9494 18.4C92.8794 18.4 92.0094 18.85 91.7694 20.14H98.1594C97.9494 18.85 97.0494 18.4 94.9494 18.4ZM110.769 13H105.129V9.4H110.769V13ZM110.769 29.5H105.129V14.38H110.769V29.5ZM119.29 27.82C114.79 27.82 112.27 25.24 112.27 20.92C112.27 16.66 114.97 14.08 119.44 14.08C122.5 14.08 124.54 15.31 124.96 17.92H125.26V14.38H130.54V26.95C130.54 32.35 127.33 34.9 121.51 34.9C116.23 34.9 113.17 32.68 113.17 28.72H118.81C118.81 29.95 118.96 30.25 121.9 30.25C124.33 30.25 124.9 29.89 124.9 27.34V24.16H124.6C124.21 26.35 122.62 27.82 119.29 27.82ZM117.97 20.92C117.97 22.42 118.69 22.99 121.33 22.99C123.85 22.99 124.9 22.69 124.9 21.1V20.89C124.9 19.27 123.85 18.94 121.33 18.94C118.69 18.94 117.97 19.45 117.97 20.92ZM137.985 29.5H132.345V9.4H137.985V18.97H138.285C138.765 16.42 140.445 14.08 144.315 14.08C148.335 14.08 150.255 16.63 150.255 19.99V29.5H144.615V21.88C144.615 19.78 143.805 19.12 141.225 19.12C138.615 19.12 137.985 19.75 137.985 21.7V29.5ZM163.255 29.5H159.295C155.515 29.5 153.265 27.67 153.265 23.74V19H151.045V14.38H153.265V11.77H158.905V14.38H163.255V19H158.905V22.93C158.905 24.13 159.265 24.43 160.555 24.43H163.255V29.5ZM172.971 29.8C167.721 29.8 164.151 26.83 164.151 21.94C164.151 17.02 167.721 14.08 172.971 14.08C178.221 14.08 181.791 17.02 181.791 21.94C181.791 26.83 178.221 29.8 172.971 29.8ZM172.971 24.82C175.521 24.82 176.211 24.13 176.211 21.94C176.211 19.75 175.521 19.03 172.971 19.03C170.421 19.03 169.731 19.75 169.731 21.94C169.731 24.13 170.421 24.82 172.971 24.82ZM188.786 29.5H183.146V14.38H188.426V18.34H188.726C189.146 15.85 190.706 14.08 193.706 14.08C197.036 14.08 198.356 16.27 198.356 19.3V22.3H192.716V20.53C192.716 19.27 192.236 18.82 190.766 18.82C189.236 18.82 188.786 19.27 188.786 20.47V29.5ZM202.882 34.6H200.152V29.5H204.532C204.982 29.5 205.342 29.44 205.582 29.32L198.352 14.38H204.772L207.382 20.32L208.462 23.8H208.852L209.842 20.26L212.092 14.38H218.392L211.222 30.1C209.602 33.67 207.292 34.6 202.882 34.6Z" fill="#090815"/>
<defs>
<filter id="filter0_i_3_325" x="20" y="19.5" width="19" height="22.5" filterUnits="userSpaceOnUse" color-interpolation-filters="sRGB">
<feFlood flood-opacity="0" result="BackgroundImageFix"/>
<feBlend mode="normal" in="SourceGraphic" in2="BackgroundImageFix" result="shape"/>
<feColorMatrix in="SourceAlpha" type="matrix" values="0 0 0 0 0 0 0 0 0 0 0 0 0 0 0 0 0 0 127 0" result="hardAlpha"/>
<feOffset dy="2"/>
<feGaussianBlur stdDeviation="10"/>
<feComposite in2="hardAlpha" operator="arithmetic" k2="-1" k3="1"/>
<feColorMatrix type="matrix" values="0 0 0 0 1 0 0 0 0 1 0 0 0 0 1 0 0 0 0.2 0"/>
<feBlend mode="normal" in2="shape" result="effect1_innerShadow_3_325"/>
</filter>
</defs>
</svg>
