<svg width="33" height="32" viewBox="0 0 33 32" fill="none" xmlns="http://www.w3.org/2000/svg">
<g style="mix-blend-mode:plus-lighter">
<g style="mix-blend-mode:plus-lighter">
<path opacity="0.4" d="M12.5 2.66663C9.00663 2.66663 6.16663 5.50663 6.16663 8.99996C6.16663 12.4266 8.84663 15.2 12.34 15.32C12.4466 15.3066 12.5533 15.3066 12.6333 15.32C12.66 15.32 12.6733 15.32 12.7 15.32C12.7133 15.32 12.7133 15.32 12.7266 15.32C16.14 15.2 18.82 12.4266 18.8333 8.99996C18.8333 5.50663 15.9933 2.66663 12.5 2.66663Z" fill="#C6C1F0"/>
<path d="M19.2733 18.8666C15.5533 16.3866 9.48661 16.3866 5.73995 18.8666C4.04661 19.9999 3.11328 21.5333 3.11328 23.1733C3.11328 24.8133 4.04661 26.3333 5.72661 27.4533C7.59328 28.7066 10.0466 29.3333 12.4999 29.3333C14.9533 29.3333 17.4066 28.7066 19.2733 27.4533C20.9533 26.3199 21.8866 24.7999 21.8866 23.1466C21.8733 21.5066 20.9533 19.9866 19.2733 18.8666Z" fill="#C6C1F0"/>
<path opacity="0.4" d="M27.1534 9.78664C27.3667 12.3733 25.5267 14.64 22.98 14.9466C22.9667 14.9466 22.9667 14.9466 22.9534 14.9466H22.9134C22.8334 14.9466 22.7534 14.9466 22.6867 14.9733C21.3934 15.04 20.2067 14.6266 19.3134 13.8666C20.6867 12.64 21.4734 10.8 21.3134 8.79997C21.22 7.71997 20.8467 6.7333 20.2867 5.8933C20.7934 5.63997 21.38 5.47997 21.98 5.42664C24.5934 5.19997 26.9267 7.14664 27.1534 9.78664Z" fill="#C6C1F0"/>
<path d="M29.82 22.1201C29.7133 23.4135 28.8867 24.5335 27.5 25.2935C26.1667 26.0268 24.4867 26.3735 22.82 26.3335C23.78 25.4668 24.34 24.3868 24.4467 23.2401C24.58 21.5868 23.7933 20.0001 22.22 18.7335C21.3267 18.0268 20.2867 17.4668 19.1533 17.0535C22.1 16.2001 25.8067 16.7735 28.0867 18.6135C29.3133 19.6001 29.94 20.8401 29.82 22.1201Z" fill="#C6C1F0"/>
</g>
</g>
</svg>
