<svg width="33" height="32" viewBox="0 0 33 32" fill="none" xmlns="http://www.w3.org/2000/svg">
<g style="mix-blend-mode:plus-lighter">
<path opacity="0.4" d="M16.5 29.3334C22.8844 29.3334 28.06 24.1578 28.06 17.7734C28.06 11.389 22.8844 6.21338 16.5 6.21338C10.1156 6.21338 4.94 11.389 4.94 17.7734C4.94 24.1578 10.1156 29.3334 16.5 29.3334Z" fill="#C6C1F0"/>
<path d="M16.5 18.3333C15.9533 18.3333 15.5 17.88 15.5 17.3333V10.6666C15.5 10.12 15.9533 9.66663 16.5 9.66663C17.0467 9.66663 17.5 10.12 17.5 10.6666V17.3333C17.5 17.88 17.0467 18.3333 16.5 18.3333Z" fill="#C6C1F0"/>
<path d="M20.3533 4.59996H12.6466C12.1133 4.59996 11.6866 4.17329 11.6866 3.63996C11.6866 3.10663 12.1133 2.66663 12.6466 2.66663H20.3533C20.8866 2.66663 21.3133 3.09329 21.3133 3.62663C21.3133 4.15996 20.8866 4.59996 20.3533 4.59996Z" fill="#C6C1F0"/>
</g>
</svg>
