<svg width="33" height="32" viewBox="0 0 33 32" fill="none" xmlns="http://www.w3.org/2000/svg">
<g style="mix-blend-mode:plus-lighter">
<path fill-rule="evenodd" clip-rule="evenodd" d="M17.9814 18C17.5687 17.6478 17.0439 17.4543 16.5014 17.4543C15.9588 17.4543 15.4341 17.6478 15.0214 18C14.6567 18.3119 14.2024 18.5001 13.724 18.5373C13.1835 18.5803 12.676 18.8145 12.2926 19.1979C11.9092 19.5813 11.675 20.0888 11.632 20.6293C11.5947 21.108 11.4054 21.5627 11.0947 21.9267C10.7429 22.3393 10.5496 22.8637 10.5496 23.406C10.5496 23.9482 10.7429 24.4727 11.0947 24.8853C11.4066 25.25 11.5948 25.7042 11.632 26.1827C11.6748 26.7236 11.909 27.2316 12.2927 27.6153C12.6764 27.999 13.1844 28.2332 13.7254 28.276C14.2027 28.3133 14.6574 28.5013 15.0227 28.812C15.4352 29.1635 15.9594 29.3565 16.5014 29.3565C17.0433 29.3565 17.5675 29.1635 17.98 28.812C18.3447 28.5001 18.7989 28.3119 19.2774 28.2747C19.8181 28.232 20.3259 27.9979 20.7096 27.6144C21.0932 27.231 21.3277 26.7234 21.3707 26.1827C21.408 25.7053 21.596 25.2493 21.9067 24.8853C22.2585 24.4727 22.4518 23.9482 22.4518 23.406C22.4518 22.8637 22.2585 22.3393 21.9067 21.9267C21.5948 21.562 21.4066 21.1077 21.3694 20.6293C21.3264 20.0888 21.0921 19.5813 20.7087 19.1979C20.3253 18.8145 19.8179 18.5803 19.2774 18.5373C18.7989 18.5001 18.346 18.3119 17.9814 18ZM19.1827 22.804C19.2787 22.7143 19.3562 22.6067 19.4106 22.4871C19.465 22.3675 19.4954 22.2384 19.4999 22.1071C19.5044 21.9758 19.483 21.8449 19.4369 21.7218C19.3909 21.5988 19.321 21.486 19.2314 21.39C19.1417 21.2939 19.034 21.2165 18.9144 21.1621C18.7949 21.1077 18.6657 21.0773 18.5344 21.0728C18.4031 21.0683 18.2722 21.0897 18.1492 21.1357C18.0262 21.1818 17.9134 21.2517 17.8174 21.3413L15.644 23.372L15.1827 22.9413C14.9887 22.7603 14.7308 22.6637 14.4656 22.6728C14.2004 22.6819 13.9497 22.796 13.7687 22.99C13.5876 23.1839 13.4911 23.4419 13.5002 23.7071C13.5093 23.9722 13.6234 24.2229 13.8174 24.404L14.96 25.4707C15.1452 25.6437 15.3892 25.7399 15.6427 25.7399C15.8962 25.7399 16.1402 25.6437 16.3254 25.4707L19.1827 22.804Z" fill="#C6C1F0"/>
<path opacity="0.5" d="M29.8333 16V10.6666C29.8333 6.89596 29.8333 5.00929 28.6613 3.83863C27.4906 2.66663 25.604 2.66663 21.8333 2.66663H11.1666C7.39598 2.66663 5.50931 2.66663 4.33865 3.83863C3.16665 5.00929 3.16665 6.89596 3.16665 10.6666V16C3.16665 19.7706 3.16665 21.6573 4.33865 22.828C5.45198 23.9426 7.21332 23.9973 10.628 24C10.5316 23.6425 10.5237 23.2668 10.605 22.9056C10.6863 22.5443 10.8543 22.2083 11.0946 21.9266C11.4066 21.562 11.5947 21.1077 11.632 20.6293C11.675 20.0888 11.9092 19.5813 12.2926 19.1979C12.676 18.8145 13.1835 18.5803 13.724 18.5373C14.2024 18.5 14.6567 18.3119 15.0213 18C15.4339 17.6481 15.9584 17.4549 16.5006 17.4549C17.0429 17.4549 17.5674 17.6481 17.98 18C18.3446 18.3119 18.7989 18.5 19.2773 18.5373C19.8178 18.5803 20.3253 18.8145 20.7087 19.1979C21.0921 19.5813 21.3263 20.0888 21.3693 20.6293C21.4066 21.108 21.596 21.5626 21.9066 21.9266C22.1469 22.2083 22.315 22.5443 22.3963 22.9056C22.4776 23.2668 22.4697 23.6425 22.3733 24C25.7866 23.9973 27.5466 23.9426 28.6613 22.828C29.8333 21.6573 29.8333 19.7706 29.8333 16Z" fill="#C6C1F0"/>
<path d="M21.5 8C21.5 7.73478 21.3947 7.48043 21.2071 7.29289C21.0196 7.10536 20.7652 7 20.5 7H12.5C12.2348 7 11.9805 7.10536 11.7929 7.29289C11.6054 7.48043 11.5 7.73478 11.5 8C11.5 8.26522 11.6054 8.51957 11.7929 8.70711C11.9805 8.89464 12.2348 9 12.5 9H20.5C20.7652 9 21.0196 8.89464 21.2071 8.70711C21.3947 8.51957 21.5 8.26522 21.5 8ZM23.1667 11.6667C23.4319 11.6667 23.6863 11.772 23.8738 11.9596C24.0613 12.1471 24.1667 12.4014 24.1667 12.6667C24.1667 12.9319 24.0613 13.1862 23.8738 13.3738C23.6863 13.5613 23.4319 13.6667 23.1667 13.6667H9.83335C9.56814 13.6667 9.31378 13.5613 9.12625 13.3738C8.93871 13.1862 8.83335 12.9319 8.83335 12.6667C8.83335 12.4014 8.93871 12.1471 9.12625 11.9596C9.31378 11.772 9.56814 11.6667 9.83335 11.6667H23.1667Z" fill="#C6C1F0"/>
</g>
</svg>
