<svg width="33" height="32" viewBox="0 0 33 32" fill="none" xmlns="http://www.w3.org/2000/svg">
<g style="mix-blend-mode:plus-lighter">
<path opacity="0.4" d="M5.49707 22.5513C6.70545 22.8684 7.93208 23.1265 9.15137 23.3394C9.37098 24.5636 9.62074 25.7858 9.93555 26.9927C8.11599 25.9086 6.58808 24.3748 5.49707 22.5513Z" fill="#C6C1F0" stroke="#C6C1F0"/>
<path opacity="0.4" d="M27.511 22.5503C26.4172 24.3834 24.8693 25.9209 23.0286 27.021C23.3635 25.8036 23.6499 24.5757 23.8655 23.3384C25.0927 23.1252 26.308 22.8678 27.511 22.5503Z" fill="#C6C1F0" stroke="#C6C1F0"/>
<path opacity="0.4" d="M23.0374 4.97925C24.8843 6.07909 26.4282 7.6235 27.5266 9.47144C26.3177 9.13924 25.0987 8.85863 23.8655 8.63647C23.6522 7.40565 23.3737 6.18337 23.0374 4.97925Z" fill="#C6C1F0" stroke="#C6C1F0"/>
<path opacity="0.4" d="M9.93921 4.99414C9.62385 6.1999 9.37487 7.4173 9.16284 8.64453C7.92403 8.85211 6.69501 9.13706 5.47729 9.47168C6.57539 7.63388 8.11016 6.08778 9.93921 4.99414Z" fill="#C6C1F0" stroke="#C6C1F0"/>
<path d="M16.5 3.16675C17.4572 3.16675 18.3988 3.28901 19.3076 3.48999C19.308 3.49152 19.3082 3.49335 19.3086 3.49487L19.3135 3.5144L19.3193 3.53394C19.838 5.06679 20.2264 6.63399 20.5371 8.22046C17.851 7.96278 15.148 7.96271 12.4619 8.22046C12.7728 6.63099 13.1614 5.05527 13.6797 3.53491L13.6865 3.51538L13.6914 3.49487C13.692 3.49242 13.6918 3.4895 13.6924 3.48706C14.6061 3.28721 15.5351 3.16675 16.5 3.16675Z" fill="#C6C1F0" stroke="#C6C1F0"/>
<path d="M9.28675 20.6533C7.44675 20.32 5.63341 19.8933 3.87341 19.2933C3.76675 19.2667 3.68675 19.28 3.58008 19.2667C3.32675 18.2133 3.16675 17.1333 3.16675 16C3.16675 14.88 3.32675 13.7867 3.58008 12.7467C3.68675 12.7333 3.76675 12.7333 3.87341 12.7067C5.64675 12.12 7.44675 11.68 9.28675 11.3467C8.95341 14.44 8.95341 17.56 9.28675 20.6533Z" fill="#C6C1F0"/>
<path d="M29.8334 16C29.8334 17.1333 29.6734 18.2133 29.42 19.2667C29.3134 19.28 29.2334 19.2667 29.1267 19.2933C27.3534 19.88 25.54 20.32 23.7134 20.6533C24.06 17.56 24.06 14.44 23.7134 11.3467C25.54 11.68 27.3667 12.1067 29.1267 12.7067C29.2334 12.7333 29.3134 12.7467 29.42 12.7467C29.6734 13.8 29.8334 14.88 29.8334 16Z" fill="#C6C1F0"/>
<path d="M21.1533 23.2134C20.82 25.0534 20.3933 26.8667 19.7933 28.6267C19.7667 28.7334 19.7667 28.8134 19.7533 28.92C18.7133 29.1734 17.62 29.3334 16.5 29.3334C15.3667 29.3334 14.2867 29.1734 13.2333 28.92C13.22 28.8134 13.2333 28.7334 13.2067 28.6267C12.62 26.8534 12.18 25.0534 11.8467 23.2134C13.3933 23.3867 14.94 23.5067 16.5 23.5067C18.06 23.5067 19.62 23.3867 21.1533 23.2134Z" fill="#C6C1F0"/>
<path d="M21.5179 21.0179C18.1831 21.4386 14.8171 21.4386 11.4823 21.0179C11.0616 17.6831 11.0616 14.3171 11.4823 10.9823C14.8171 10.5616 18.1831 10.5616 21.5179 10.9823C21.9386 14.3171 21.9386 17.6831 21.5179 21.0179Z" fill="#C6C1F0"/>
</g>
</svg>
