<svg width="33" height="32" viewBox="0 0 33 32" fill="none" xmlns="http://www.w3.org/2000/svg">
<g style="mix-blend-mode:plus-lighter">
<path opacity="0.4" d="M12.5001 2.66675C9.00675 2.66675 6.16675 5.50675 6.16675 9.00008C6.16675 12.4267 8.84675 15.2001 12.3401 15.3201C12.4467 15.3067 12.5534 15.3067 12.6334 15.3201C12.6601 15.3201 12.6734 15.3201 12.7001 15.3201C12.7134 15.3201 12.7134 15.3201 12.7267 15.3201C16.1401 15.2001 18.8201 12.4267 18.8334 9.00008C18.8334 5.50675 15.9934 2.66675 12.5001 2.66675Z" fill="#C6C1F0"/>
<path d="M19.2733 18.8666C15.5533 16.3866 9.48661 16.3866 5.73995 18.8666C4.04661 19.9999 3.11328 21.5333 3.11328 23.1733C3.11328 24.8133 4.04661 26.3333 5.72661 27.4533C7.59328 28.7066 10.0466 29.3333 12.4999 29.3333C14.9533 29.3333 17.4066 28.7066 19.2733 27.4533C20.9533 26.3199 21.8866 24.7999 21.8866 23.1466C21.8733 21.5066 20.9533 19.9866 19.2733 18.8666Z" fill="#C6C1F0"/>
<path opacity="0.4" d="M27.1532 9.78664C27.3666 12.3733 25.5266 14.64 22.9799 14.9466C22.9666 14.9466 22.9666 14.9466 22.9532 14.9466H22.9132C22.8332 14.9466 22.7532 14.9466 22.6866 14.9733C21.3932 15.04 20.2066 14.6266 19.3132 13.8666C20.6866 12.64 21.4732 10.8 21.3132 8.79997C21.2199 7.71997 20.8466 6.7333 20.2866 5.8933C20.7932 5.63997 21.3799 5.47997 21.9799 5.42664C24.5932 5.19997 26.9266 7.14664 27.1532 9.78664Z" fill="#C6C1F0"/>
<path d="M29.82 22.1201C29.7133 23.4135 28.8867 24.5335 27.5 25.2935C26.1667 26.0268 24.4867 26.3735 22.82 26.3335C23.78 25.4668 24.34 24.3868 24.4467 23.2401C24.58 21.5868 23.7933 20.0001 22.22 18.7335C21.3267 18.0268 20.2867 17.4668 19.1533 17.0535C22.1 16.2001 25.8067 16.7735 28.0867 18.6135C29.3133 19.6001 29.94 20.8401 29.82 22.1201Z" fill="#C6C1F0"/>
</g>
</svg>
