<svg width="33" height="32" viewBox="0 0 33 32" fill="none" xmlns="http://www.w3.org/2000/svg">
<g style="mix-blend-mode:plus-lighter">
<path opacity="0.5" d="M15.1134 2.74669L7.78007 5.49336C6.38007 6.02669 5.2334 7.68003 5.2334 9.18669V19.9867C5.2334 21.0667 5.94007 22.4934 6.80673 23.1334L14.1401 28.6134C15.4334 29.5867 17.5534 29.5867 18.8467 28.6134L26.1801 23.1334C27.0467 22.48 27.7534 21.0667 27.7534 19.9867V9.18669C27.7534 7.69336 26.6067 6.02669 25.2067 5.50669L17.8734 2.76003C17.1267 2.46669 15.8734 2.46669 15.1134 2.74669Z" fill="#C6C1F0"/>
<path d="M14.7134 18.9734C14.4601 18.9734 14.2067 18.8801 14.0067 18.6801L11.8601 16.5334C11.4734 16.1467 11.4734 15.5067 11.8601 15.1201C12.2467 14.7334 12.8867 14.7334 13.2734 15.1201L14.7134 16.5601L19.7401 11.5334C20.1267 11.1467 20.7667 11.1467 21.1534 11.5334C21.5401 11.9201 21.5401 12.5601 21.1534 12.9467L15.4201 18.6801C15.2201 18.8801 14.9667 18.9734 14.7134 18.9734Z" fill="#C6C1F0"/>
</g>
</svg>
