<svg width="24" height="25" viewBox="0 0 24 25" fill="none" xmlns="http://www.w3.org/2000/svg">
<rect y="0.5" width="24" height="24" rx="12" fill="#654BE7"/>
<path d="M18.5339 11.1667C18.8384 12.6609 18.6214 14.2143 17.9192 15.5679C17.2169 16.9214 16.0719 17.9934 14.675 18.6049C13.278 19.2164 11.7137 19.3305 10.2428 18.9282C8.77193 18.526 7.48341 17.6316 6.59213 16.3943C5.70085 15.157 5.26069 13.6515 5.34505 12.1289C5.42941 10.6063 6.0332 9.15872 7.05571 8.02744C8.07823 6.89616 9.45767 6.14961 10.964 5.9123C12.4703 5.67498 14.0125 5.96123 15.3333 6.72333" stroke="white" stroke-width="1.33333" stroke-linecap="round" stroke-linejoin="round"/>
<path d="M10 11.8334L12 13.8334L18.6667 7.16675" stroke="white" stroke-width="1.33333" stroke-linecap="round" stroke-linejoin="round"/>
</svg>
