<svg width="33" height="32" viewBox="0 0 33 32" fill="none" xmlns="http://www.w3.org/2000/svg">
<path d="M7.16671 1.33325C5.91337 1.33325 4.75337 1.77326 3.83337 2.50659C2.60671 3.47993 1.83337 4.98659 1.83337 6.66659C1.83337 9.61325 4.22004 11.9999 7.16671 11.9999C8.51337 11.9999 9.74006 11.4933 10.6867 10.6666C11.7934 9.69325 12.5 8.26659 12.5 6.66659C12.5 3.71992 10.1134 1.33325 7.16671 1.33325ZM8.50004 6.99992C8.50004 7.34659 8.31339 7.67994 8.02006 7.85327L6.35339 8.85327C6.19339 8.94661 6.02005 8.99992 5.84672 8.99992C5.51339 8.99992 5.18003 8.8266 4.99337 8.51994C4.71337 8.03994 4.86005 7.42657 5.34005 7.14657L6.52673 6.43994V4.99992C6.52673 4.45325 6.98007 3.99992 7.52673 3.99992C8.0734 3.99992 8.52673 4.45325 8.52673 4.99992V6.99992H8.50004Z" fill="#C6C1F0"/>
<path opacity="0.4" d="M19.1666 3.16675C19.6237 3.16675 19.9995 3.54271 19.9996 3.99976V15.9998C19.9996 17.1902 19.024 18.1666 17.8336 18.1667H3.66663V11.324C4.66551 12.0901 5.93154 12.531 7.29553 12.4988L7.29651 12.4998V12.4988L7.29846 12.4998L7.29749 12.4988C8.6772 12.4712 9.93475 11.9704 10.9078 11.1228L11.0992 10.948C11.5543 10.5604 11.9296 10.0786 12.2164 9.56226C12.7381 8.67356 13.0288 7.62567 12.9996 6.53296C12.9668 5.26205 12.5363 4.1033 11.8297 3.16675H19.1666Z" fill="#C6C1F0" stroke="#C6C1F0"/>
<path d="M29.8333 18.6667V22.6667C29.8333 24.8801 28.0466 26.6667 25.8333 26.6667H24.5C24.5 25.2001 23.3 24.0001 21.8333 24.0001C20.3666 24.0001 19.1666 25.2001 19.1666 26.6667H13.8333C13.8333 25.2001 12.6333 24.0001 11.1666 24.0001C9.69996 24.0001 8.49996 25.2001 8.49996 26.6667H7.16663C4.95329 26.6667 3.16663 24.8801 3.16663 22.6667V18.6667H17.8333C19.3 18.6667 20.5 17.4667 20.5 16.0001V6.66675H22.9533C23.9133 6.66675 24.7933 7.18676 25.2733 8.01343L27.5533 12.0001H25.8333C25.1 12.0001 24.5 12.6001 24.5 13.3334V17.3334C24.5 18.0667 25.1 18.6667 25.8333 18.6667H29.8333Z" fill="#C6C1F0"/>
<path opacity="0.4" d="M11.167 24.5C12.3635 24.5002 13.333 25.4705 13.333 26.667C13.3328 27.8634 12.3634 28.8328 11.167 28.833C9.97048 28.833 9.00018 27.8635 9 26.667C9 25.4704 9.97038 24.5 11.167 24.5Z" fill="#C6C1F0" stroke="#C6C1F0"/>
<path opacity="0.4" d="M21.8336 24.5C23.0301 24.5002 23.9996 25.4705 23.9996 26.667C23.9995 27.8634 23.03 28.8328 21.8336 28.833C20.6371 28.833 19.6668 27.8635 19.6666 26.667C19.6666 25.4704 20.637 24.5 21.8336 24.5Z" fill="#C6C1F0" stroke="#C6C1F0"/>
<path opacity="0.4" d="M25.833 12.5H27.2627L29.0527 15.6348C29.236 15.9589 29.333 16.3271 29.333 16.707V18.167H25.833C25.376 18.1668 25 17.7901 25 17.333V13.333C25.0002 12.8761 25.3761 12.5002 25.833 12.5Z" fill="#C6C1F0" stroke="#C6C1F0"/>
</svg>
